<?xml version="1.0" standalone="no"?>
<!DOCTYPE svg PUBLIC "-//W3C//DTD SVG 20010904//EN"
 "http://www.w3.org/TR/2001/REC-SVG-20010904/DTD/svg10.dtd">
<svg version="1.0" xmlns="http://www.w3.org/2000/svg"
 width="300.000000pt" height="262.000000pt" viewBox="0 0 300.000000 262.000000"
 preserveAspectRatio="xMidYMid meet">
<metadata>
Created by potrace 1.10, written by Peter Selinger 2001-2011
</metadata>
<g transform="translate(0.000000,262.000000) scale(0.100000,-0.100000)"
fill="#000000" stroke="none">
<path d="M2080 2439 c-45 -18 -80 -60 -80 -95 0 -33 21 -64 45 -64 7 0 20 -12
30 -26 16 -25 16 -27 -7 -51 -31 -35 -104 -66 -134 -59 -33 9 -32 43 1 58 33
15 31 52 -3 56 -45 7 -76 -42 -59 -91 13 -39 62 -67 117 -67 54 0 96 23 141
79 37 47 46 50 57 20 8 -20 9 -21 26 -3 17 17 17 18 1 30 -10 8 -23 15 -29 18
-6 3 4 18 22 34 25 22 29 31 19 35 -17 6 -57 -13 -88 -42 -13 -12 -27 -21 -31
-21 -18 0 -20 32 -2 51 14 15 15 22 5 32 -10 9 -16 7 -31 -11 -27 -32 -54 -25
-58 14 -6 62 88 97 149 56 15 -9 50 -36 79 -59 28 -24 56 -43 62 -43 25 0 77
41 78 62 0 4 -15 4 -33 1 -27 -4 -41 2 -82 33 -77 59 -138 75 -195 53z"/>
<path d="M1519 2400 c-24 -22 -45 -40 -47 -40 -2 0 -1 12 2 27 13 50 -15 46
-73 -10 -44 -43 -53 -48 -48 -28 6 24 -7 61 -21 61 -5 0 -26 -27 -47 -60 -21
-33 -42 -60 -47 -60 -4 0 -14 -13 -23 -30 -27 -53 -38 -37 -31 45 4 41 4 75 0
75 -3 0 -17 -9 -31 -20 -33 -25 -43 -25 -43 1 0 14 -5 19 -17 17 -15 -3 -18
-14 -18 -58 -1 -40 -8 -67 -25 -97 -29 -50 -44 -50 -48 -2 -4 41 -29 71 -55
67 -29 -4 -55 -45 -72 -115 -16 -61 -16 -63 6 -93 37 -49 86 -37 112 29 9 22
22 43 30 48 20 11 64 92 72 131 4 18 13 32 21 32 23 0 26 -22 9 -69 -21 -60
-19 -88 5 -96 28 -9 42 5 102 94 59 89 57 86 63 79 3 -3 -6 -31 -20 -63 -43
-99 -9 -98 55 0 23 35 48 69 56 76 28 23 27 -2 -1 -60 -30 -63 -27 -95 6 -65
10 9 37 45 60 80 23 35 48 64 56 64 10 0 13 -5 8 -17 -32 -79 -37 -105 -24
-114 8 -5 18 -9 23 -9 14 0 110 99 103 107 -4 3 -18 -6 -32 -21 -34 -37 -49
-25 -29 22 31 72 35 86 30 99 -8 21 -21 16 -67 -27z m-545 -156 c10 -26 7 -52
-6 -57 -10 -3 -10 -9 1 -30 16 -31 8 -60 -16 -55 -15 3 -19 16 -21 67 -2 35
-1 70 2 77 7 19 32 18 40 -2z"/>
<path d="M1854 2415 c-6 -14 -15 -16 -51 -10 -48 7 -71 -3 -128 -57 -16 -15
-34 -28 -39 -28 -4 0 -6 -9 -3 -19 2 -10 1 -25 -4 -32 -23 -37 37 -64 77 -34
26 20 34 19 34 -5 0 -11 7 -23 15 -26 16 -7 125 52 125 67 0 6 -13 2 -30 -7
-46 -28 -47 -9 -2 56 45 64 50 81 27 100 -12 10 -16 9 -21 -5z m-44 -61 c0
-21 -73 -94 -94 -94 -26 0 -18 27 20 70 37 41 74 53 74 24z"/>
<path d="M720 2337 c0 -28 -24 -49 -97 -86 -79 -40 -123 -143 -89 -209 27 -52
72 -66 104 -34 11 11 32 22 49 25 28 6 31 3 42 -32 16 -56 14 -115 -7 -141
-25 -31 -52 -18 -52 27 0 32 -2 34 -27 31 -23 -2 -29 -9 -31 -33 -6 -66 75
-99 132 -54 61 48 74 136 31 220 -20 41 -22 51 -10 55 8 3 19 3 25 -1 6 -3 10
3 10 15 0 28 -28 37 -44 15 -17 -24 -34 -12 -42 30 -10 54 -27 30 -21 -29 3
-28 7 -57 9 -65 6 -27 -31 -24 -42 3 -5 14 -16 26 -25 26 -18 0 -20 -31 -3
-48 14 -14 -6 -42 -33 -42 -43 0 -65 92 -33 138 9 13 54 41 100 63 90 43 106
65 88 117 -12 35 -34 40 -34 9z"/>
<path d="M2291 2144 c-36 -8 -67 -16 -69 -19 -12 -12 7 -14 38 -5 50 14 49 3
-1 -18 -50 -22 -74 -46 -63 -63 5 -8 31 -10 88 -6 65 5 77 3 62 -6 -11 -7 -28
-20 -38 -30 -35 -33 -8 -44 125 -52 67 -4 125 -9 130 -12 8 -5 -36 -43 -75
-62 -28 -14 -48 -8 -48 15 0 17 22 18 38 2 8 -8 12 -8 12 -1 0 16 -27 35 -46
31 -29 -5 -40 -33 -25 -62 15 -28 51 -45 96 -45 17 0 50 -4 75 -9 44 -9 45 -9
15 -16 -67 -17 -80 -23 -83 -41 -5 -22 9 -31 76 -51 57 -17 63 -24 30 -39 -36
-16 -35 -57 2 -89 17 -14 38 -26 45 -26 8 0 19 -9 25 -20 6 -11 34 -33 63 -50
56 -32 48 -37 -32 -18 -98 22 -75 -16 41 -69 43 -20 78 -40 78 -44 0 -12 -37
-11 -80 1 -26 7 -38 7 -48 -3 -19 -20 -6 -43 50 -83 54 -40 78 -40 32 0 -38
32 -27 40 36 27 99 -21 119 -4 54 46 -20 15 -46 36 -57 46 l-22 17 26 -6 c18
-4 32 0 43 12 22 21 10 34 -55 58 -54 20 -104 59 -95 74 4 6 13 9 21 5 22 -8
73 16 80 37 3 9 2 25 -1 35 -7 18 -97 65 -124 65 -9 0 -24 6 -35 14 -11 7 -32
16 -47 20 -43 10 -33 24 27 36 53 11 84 37 71 59 -3 5 -42 10 -86 13 -44 3
-83 8 -86 11 -9 8 14 63 32 78 11 9 19 8 34 -6 20 -18 40 -13 40 11 0 23 -63
44 -134 44 -36 0 -68 4 -71 10 -3 5 -18 9 -33 7 -47 -4 -39 17 20 48 72 39 74
41 48 55 -18 9 -36 8 -90 -6 -38 -9 -76 -14 -86 -10 -16 6 -11 12 29 32 37 19
47 30 47 49 0 29 -6 29 -99 9z m508 -543 c8 -5 11 -16 8 -25 -7 -19 -57 -22
-75 -4 -8 8 -15 8 -26 -1 -27 -23 -74 8 -49 32 10 10 126 8 142 -2z"/>
<path d="M410 1965 c0 -4 7 -20 16 -37 10 -18 14 -42 10 -59 -4 -21 -2 -29 8
-29 9 0 16 -18 20 -52 4 -29 9 -70 12 -90 8 -51 -8 -48 -46 7 -22 33 -38 45
-55 45 -33 0 -32 -22 5 -101 28 -60 30 -62 24 -24 l-6 40 31 -41 c36 -49 55
-58 72 -38 9 11 8 34 -5 105 -9 50 -15 93 -13 96 3 2 13 -13 24 -33 45 -87 83
-64 83 48 0 39 -4 68 -10 68 -6 0 -9 -18 -8 -41 5 -67 -18 -60 -53 16 -30 63
-31 67 -14 86 21 23 13 38 -11 18 -14 -11 -17 -10 -25 4 -9 15 -59 25 -59 12z"/>
<path d="M287 1863 c-13 -12 -7 -60 8 -73 22 -18 45 -5 45 28 0 39 -32 67 -53
45z"/>
<path d="M2780 1814 c-11 -13 -10 -19 8 -36 18 -19 25 -20 47 -10 14 6 25 18
25 25 0 35 -57 50 -80 21z"/>
<path d="M980 1732 c-107 -53 -107 -211 0 -264 98 -50 210 21 210 132 0 81
-67 150 -145 150 -16 0 -46 -8 -65 -18z m160 -79 c31 -45 21 -92 -27 -132 -47
-39 -63 -42 -107 -21 -52 23 -78 69 -66 115 2 6 4 15 4 20 4 26 33 55 54 55
14 0 21 4 16 11 -4 8 1 9 16 4 15 -5 20 -3 16 3 -16 27 75 -27 94 -55z"/>
<path d="M1007 1658 c-9 -7 -21 -25 -26 -40 -8 -21 -6 -32 10 -52 11 -14 29
-26 40 -26 12 0 17 -4 13 -11 -9 -15 48 22 63 41 18 22 16 45 -7 65 -11 10
-17 22 -14 26 8 14 -60 11 -79 -3z m73 -37 c13 -25 13 -27 -6 -45 -35 -36 -87
0 -64 44 14 26 56 26 70 1z"/>
<path d="M2190 1739 c-103 -41 -128 -175 -45 -248 78 -68 188 -45 230 50 54
119 -65 246 -185 198z m110 -45 c21 -7 50 -60 50 -90 0 -13 -9 -41 -21 -63
-16 -32 -28 -42 -56 -47 -46 -9 -97 7 -102 31 -2 11 -12 26 -22 33 -11 7 -19
25 -19 39 0 35 37 92 63 98 43 9 72 12 82 9 6 -2 17 -6 25 -10z"/>
<path d="M2214 1660 c-30 -12 -49 -62 -34 -90 11 -20 24 -28 79 -45 16 -5 21
-4 17 3 -4 6 5 19 19 28 20 13 24 22 19 43 -8 33 -42 71 -63 70 -9 0 -25 -4
-37 -9z m54 -32 c7 -7 12 -22 12 -35 0 -27 -42 -42 -65 -23 -28 23 -11 70 25
70 9 0 21 -5 28 -12z"/>
<path d="M165 1712 c5 -24 -2 -46 -30 -100 -20 -39 -39 -86 -42 -105 -12 -77
42 -157 106 -157 41 0 61 14 61 45 0 11 12 28 25 38 24 17 26 17 56 -5 40 -30
69 -78 69 -116 0 -46 -28 -51 -62 -10 -27 32 -29 32 -43 14 -19 -25 -19 -28 6
-60 41 -52 124 -19 136 56 9 62 -5 106 -48 149 -22 22 -51 44 -64 49 -30 11
-32 30 -6 37 21 5 18 28 -5 37 -9 4 -18 -3 -24 -19 -12 -32 -25 -31 -55 0 -13
15 -26 22 -28 18 -9 -14 23 -72 51 -93 14 -12 22 -26 18 -35 -7 -20 -25 -19
-48 2 -15 13 -21 14 -31 4 -9 -10 -6 -17 16 -35 36 -29 28 -56 -18 -56 -45 0
-75 38 -75 94 0 32 10 55 46 108 60 86 60 128 1 159 -17 10 -18 8 -12 -19z"/>
<path d="M1596 1500 c-112 -35 -131 -200 -30 -266 16 -11 45 -18 73 -18 186 0
205 260 21 288 -19 3 -48 1 -64 -4z m94 -45 c0 -8 6 -15 13 -15 26 0 47 -39
47 -87 0 -49 -20 -83 -49 -83 -9 0 -26 -7 -38 -15 -44 -31 -124 28 -125 92 -1
51 2 59 33 91 26 26 39 32 75 32 32 0 44 -4 44 -15z"/>
<path d="M1052 1413 c-29 -4 -32 -7 -26 -26 19 -62 61 -130 126 -206 115 -132
166 -201 203 -276 56 -113 103 -268 118 -395 8 -63 13 -116 12 -118 -1 -1 -56
11 -121 28 -301 79 -500 203 -573 360 -21 44 -26 70 -26 130 0 95 26 152 109
233 73 73 35 57 -78 -33 -117 -93 -166 -180 -166 -298 0 -294 509 -540 1075
-519 207 8 441 52 572 108 83 36 194 92 200 102 4 7 -1 7 -13 2 -98 -42 -206
-77 -289 -94 -105 -22 -360 -49 -370 -39 -9 8 15 195 35 278 50 208 110 320
261 490 94 106 118 141 148 217 l20 51 -40 4 c-37 3 -41 1 -56 -29 -18 -39
-102 -117 -152 -143 -169 -84 -586 -83 -756 3 -51 26 -151 122 -159 153 -4 13
-10 23 -14 22 -4 0 -22 -3 -40 -5z m1121 -125 c-15 -24 -37 -54 -50 -69 -13
-14 -23 -29 -23 -35 -1 -5 -18 -22 -39 -39 -21 -16 -45 -41 -54 -55 -9 -14
-28 -43 -44 -66 -46 -67 -53 -78 -64 -106 -6 -16 -15 -28 -20 -28 -5 0 -9 -7
-9 -15 0 -9 -12 -48 -26 -88 -14 -39 -27 -79 -29 -87 -2 -8 -4 -15 -5 -15 -2
0 -4 -13 -21 -115 -6 -41 -16 -81 -22 -87 -5 -8 -5 -13 0 -13 10 0 11 -45 1
-55 -4 -4 0 -18 8 -31 13 -19 14 -26 2 -41 -11 -16 -29 -18 -133 -18 -168 1
-381 27 -369 46 3 5 -2 9 -10 9 -9 0 -16 -6 -16 -12 0 -9 -3 -9 -9 1 -5 8 -16
11 -25 8 -9 -4 -16 -3 -16 2 0 8 -27 16 -85 27 -30 6 -166 65 -197 86 -14 10
-31 18 -36 18 -5 0 -12 7 -16 15 -3 8 -11 15 -18 15 -18 0 -99 77 -132 127
-47 70 -70 153 -46 168 6 4 8 11 4 16 -12 20 7 75 36 109 16 19 28 28 25 20
-2 -8 -6 -45 -8 -82 -2 -49 0 -69 10 -72 7 -3 13 -13 13 -23 0 -50 66 -138
167 -225 36 -31 206 -118 268 -138 22 -7 45 -16 50 -20 14 -9 77 -26 163 -43
70 -14 75 -14 90 3 31 34 41 48 37 52 -2 2 -6 15 -8 28 -3 14 -8 41 -11 60 -4
19 -8 59 -10 88 -2 29 -8 58 -14 65 -5 6 -17 41 -26 77 -34 139 -123 284 -265
436 -50 53 -96 123 -87 132 4 4 12 -1 17 -11 6 -9 14 -17 19 -17 5 0 24 -14
42 -31 39 -36 111 -73 165 -84 21 -5 45 -10 53 -12 53 -12 250 -23 325 -18
108 7 241 33 273 53 12 8 22 11 22 8 0 -14 57 24 110 73 30 27 58 50 63 51 4
0 -5 -19 -20 -42z"/>
<path d="M1300 1413 c-25 -1 -69 -6 -99 -9 l-54 -6 29 -28 c28 -28 32 -29 152
-32 116 -3 122 -2 122 17 0 11 3 30 6 43 6 21 4 22 -52 20 -33 -1 -79 -3 -104
-5z"/>
<path d="M870 1336 c-106 -37 -207 -83 -217 -99 -4 -7 0 -8 13 -2 63 28 191
66 255 77 41 6 76 13 77 14 9 6 -10 44 -21 43 -7 0 -55 -15 -107 -33z"/>
<path d="M1835 1357 c-2 -7 -5 -23 -8 -37 -2 -14 -8 -32 -11 -41 -12 -29 51
-43 106 -24 73 24 121 46 115 51 -3 3 -49 18 -102 34 -67 20 -97 25 -100 17z
m80 -57 c24 -4 16 -10 -13 -10 -22 0 -32 5 -32 15 0 12 4 13 18 6 9 -5 22 -10
27 -11z"/>
<path d="M2179 1160 l-46 -57 27 -16 c43 -26 135 -130 161 -184 20 -40 24 -63
24 -138 0 -86 -2 -94 -35 -149 -19 -32 -60 -79 -90 -104 -66 -54 -42 -48 49
13 86 57 176 151 202 212 28 64 23 176 -11 247 -27 55 -121 156 -190 203 l-46
31 -45 -58z m187 -102 c92 -103 115 -231 60 -330 -45 -79 -51 -77 -49 22 2
131 -25 194 -131 306 -43 46 -53 62 -45 75 22 43 86 15 165 -73z"/>
</g>
</svg>
